<mxfile host="app.diagrams.net" agent="Mozilla/5.0 (Windows NT 10.0; Win64; x64) AppleWebKit/537.36 (KHTML, like Gecko) Chrome/130.0.0.0 Safari/537.36" version="25.0.3">
  <diagram id="C5RBs43oDa-KdzZeNtuy" name="Page-1">
    <mxGraphModel grid="1" page="1" gridSize="12" guides="1" tooltips="1" connect="1" arrows="1" fold="1" pageScale="1" pageWidth="827" pageHeight="1169" math="0" shadow="0">
      <root>
        <mxCell id="WIyWlLk6GJQsqaUBKTNV-0" />
        <mxCell id="WIyWlLk6GJQsqaUBKTNV-1" parent="WIyWlLk6GJQsqaUBKTNV-0" />
        <mxCell id="QKXycGEVbPSbvXRqqRng-4" value="" style="edgeStyle=orthogonalEdgeStyle;rounded=0;orthogonalLoop=1;jettySize=auto;html=1;" edge="1" parent="WIyWlLk6GJQsqaUBKTNV-1" target="QKXycGEVbPSbvXRqqRng-1">
          <mxGeometry relative="1" as="geometry">
            <mxPoint x="159" y="300" as="sourcePoint" />
          </mxGeometry>
        </mxCell>
        <mxCell id="QKXycGEVbPSbvXRqqRng-0" value="" style="ellipse;whiteSpace=wrap;html=1;" vertex="1" parent="WIyWlLk6GJQsqaUBKTNV-1">
          <mxGeometry x="99" y="220" width="120" height="80" as="geometry" />
        </mxCell>
        <mxCell id="QKXycGEVbPSbvXRqqRng-7" value="" style="edgeStyle=orthogonalEdgeStyle;rounded=0;orthogonalLoop=1;jettySize=auto;html=1;" edge="1" parent="WIyWlLk6GJQsqaUBKTNV-1" source="QKXycGEVbPSbvXRqqRng-1" target="QKXycGEVbPSbvXRqqRng-2">
          <mxGeometry relative="1" as="geometry" />
        </mxCell>
        <mxCell id="QKXycGEVbPSbvXRqqRng-1" value="" style="shape=parallelogram;perimeter=parallelogramPerimeter;whiteSpace=wrap;html=1;fixedSize=1;" vertex="1" parent="WIyWlLk6GJQsqaUBKTNV-1">
          <mxGeometry x="99" y="350" width="120" height="60" as="geometry" />
        </mxCell>
        <mxCell id="QKXycGEVbPSbvXRqqRng-11" value="" style="edgeStyle=orthogonalEdgeStyle;rounded=0;orthogonalLoop=1;jettySize=auto;html=1;" edge="1" parent="WIyWlLk6GJQsqaUBKTNV-1" source="QKXycGEVbPSbvXRqqRng-2" target="QKXycGEVbPSbvXRqqRng-10">
          <mxGeometry relative="1" as="geometry" />
        </mxCell>
        <mxCell id="QKXycGEVbPSbvXRqqRng-2" value="" style="rhombus;whiteSpace=wrap;html=1;" vertex="1" parent="WIyWlLk6GJQsqaUBKTNV-1">
          <mxGeometry x="84" y="470" width="150" height="80" as="geometry" />
        </mxCell>
        <mxCell id="QKXycGEVbPSbvXRqqRng-3" value="start" style="text;html=1;align=center;verticalAlign=middle;whiteSpace=wrap;rounded=0;" vertex="1" parent="WIyWlLk6GJQsqaUBKTNV-1">
          <mxGeometry x="129" y="245" width="60" height="30" as="geometry" />
        </mxCell>
        <mxCell id="QKXycGEVbPSbvXRqqRng-6" value="nhập n" style="text;strokeColor=none;align=center;fillColor=none;html=1;verticalAlign=middle;whiteSpace=wrap;rounded=0;" vertex="1" parent="WIyWlLk6GJQsqaUBKTNV-1">
          <mxGeometry x="129" y="365" width="60" height="30" as="geometry" />
        </mxCell>
        <mxCell id="QKXycGEVbPSbvXRqqRng-8" value="n &amp;lt; 4" style="text;html=1;align=center;verticalAlign=middle;whiteSpace=wrap;rounded=0;" vertex="1" parent="WIyWlLk6GJQsqaUBKTNV-1">
          <mxGeometry x="129" y="495" width="60" height="30" as="geometry" />
        </mxCell>
        <mxCell id="QKXycGEVbPSbvXRqqRng-9" value="true" style="text;html=1;align=center;verticalAlign=middle;whiteSpace=wrap;rounded=0;" vertex="1" parent="WIyWlLk6GJQsqaUBKTNV-1">
          <mxGeometry x="249" y="480" width="60" height="30" as="geometry" />
        </mxCell>
        <mxCell id="QKXycGEVbPSbvXRqqRng-36" style="edgeStyle=orthogonalEdgeStyle;rounded=0;orthogonalLoop=1;jettySize=auto;html=1;exitX=1;exitY=0.5;exitDx=0;exitDy=0;" edge="1" parent="WIyWlLk6GJQsqaUBKTNV-1" source="QKXycGEVbPSbvXRqqRng-10">
          <mxGeometry relative="1" as="geometry">
            <mxPoint x="672" y="744" as="targetPoint" />
          </mxGeometry>
        </mxCell>
        <mxCell id="QKXycGEVbPSbvXRqqRng-10" value="" style="rounded=1;whiteSpace=wrap;html=1;" vertex="1" parent="WIyWlLk6GJQsqaUBKTNV-1">
          <mxGeometry x="329" y="480" width="120" height="60" as="geometry" />
        </mxCell>
        <mxCell id="QKXycGEVbPSbvXRqqRng-12" value="không đạt" style="text;html=1;align=center;verticalAlign=middle;whiteSpace=wrap;rounded=0;" vertex="1" parent="WIyWlLk6GJQsqaUBKTNV-1">
          <mxGeometry x="359" y="495" width="60" height="30" as="geometry" />
        </mxCell>
        <mxCell id="QKXycGEVbPSbvXRqqRng-16" value="" style="edgeStyle=orthogonalEdgeStyle;rounded=0;orthogonalLoop=1;jettySize=auto;html=1;" edge="1" parent="WIyWlLk6GJQsqaUBKTNV-1" source="QKXycGEVbPSbvXRqqRng-13" target="QKXycGEVbPSbvXRqqRng-15">
          <mxGeometry relative="1" as="geometry" />
        </mxCell>
        <mxCell id="QKXycGEVbPSbvXRqqRng-18" value="" style="edgeStyle=orthogonalEdgeStyle;rounded=0;orthogonalLoop=1;jettySize=auto;html=1;" edge="1" parent="WIyWlLk6GJQsqaUBKTNV-1" source="QKXycGEVbPSbvXRqqRng-13" target="QKXycGEVbPSbvXRqqRng-17">
          <mxGeometry relative="1" as="geometry" />
        </mxCell>
        <mxCell id="QKXycGEVbPSbvXRqqRng-13" value="" style="rhombus;whiteSpace=wrap;html=1;" vertex="1" parent="WIyWlLk6GJQsqaUBKTNV-1">
          <mxGeometry x="84" y="590" width="150" height="80" as="geometry" />
        </mxCell>
        <mxCell id="QKXycGEVbPSbvXRqqRng-14" value="4 &amp;lt; n &amp;lt; 6" style="text;html=1;align=center;verticalAlign=middle;whiteSpace=wrap;rounded=0;" vertex="1" parent="WIyWlLk6GJQsqaUBKTNV-1">
          <mxGeometry x="129" y="615" width="60" height="30" as="geometry" />
        </mxCell>
        <mxCell id="QKXycGEVbPSbvXRqqRng-38" style="edgeStyle=orthogonalEdgeStyle;rounded=0;orthogonalLoop=1;jettySize=auto;html=1;exitX=1;exitY=0.5;exitDx=0;exitDy=0;" edge="1" parent="WIyWlLk6GJQsqaUBKTNV-1" source="QKXycGEVbPSbvXRqqRng-15">
          <mxGeometry relative="1" as="geometry">
            <mxPoint x="672" y="630.4545454545453" as="targetPoint" />
          </mxGeometry>
        </mxCell>
        <mxCell id="QKXycGEVbPSbvXRqqRng-15" value="" style="rounded=1;whiteSpace=wrap;html=1;" vertex="1" parent="WIyWlLk6GJQsqaUBKTNV-1">
          <mxGeometry x="329" y="600" width="91" height="60" as="geometry" />
        </mxCell>
        <mxCell id="QKXycGEVbPSbvXRqqRng-21" value="" style="edgeStyle=orthogonalEdgeStyle;rounded=0;orthogonalLoop=1;jettySize=auto;html=1;" edge="1" parent="WIyWlLk6GJQsqaUBKTNV-1" source="QKXycGEVbPSbvXRqqRng-17" target="QKXycGEVbPSbvXRqqRng-20">
          <mxGeometry relative="1" as="geometry" />
        </mxCell>
        <mxCell id="QKXycGEVbPSbvXRqqRng-26" value="" style="edgeStyle=orthogonalEdgeStyle;rounded=0;orthogonalLoop=1;jettySize=auto;html=1;" edge="1" parent="WIyWlLk6GJQsqaUBKTNV-1" source="QKXycGEVbPSbvXRqqRng-17" target="QKXycGEVbPSbvXRqqRng-25">
          <mxGeometry relative="1" as="geometry" />
        </mxCell>
        <mxCell id="QKXycGEVbPSbvXRqqRng-17" value="" style="rhombus;whiteSpace=wrap;html=1;" vertex="1" parent="WIyWlLk6GJQsqaUBKTNV-1">
          <mxGeometry x="84" y="750" width="150" height="80" as="geometry" />
        </mxCell>
        <mxCell id="QKXycGEVbPSbvXRqqRng-19" value="6 &amp;lt; n &amp;lt;8" style="text;html=1;align=center;verticalAlign=middle;whiteSpace=wrap;rounded=0;" vertex="1" parent="WIyWlLk6GJQsqaUBKTNV-1">
          <mxGeometry x="129" y="775" width="60" height="30" as="geometry" />
        </mxCell>
        <mxCell id="QKXycGEVbPSbvXRqqRng-28" value="" style="edgeStyle=orthogonalEdgeStyle;rounded=0;orthogonalLoop=1;jettySize=auto;html=1;" edge="1" parent="WIyWlLk6GJQsqaUBKTNV-1" source="QKXycGEVbPSbvXRqqRng-20" target="QKXycGEVbPSbvXRqqRng-27">
          <mxGeometry relative="1" as="geometry" />
        </mxCell>
        <mxCell id="QKXycGEVbPSbvXRqqRng-20" value="" style="rhombus;whiteSpace=wrap;html=1;" vertex="1" parent="WIyWlLk6GJQsqaUBKTNV-1">
          <mxGeometry x="89" y="880" width="140" height="80" as="geometry" />
        </mxCell>
        <mxCell id="QKXycGEVbPSbvXRqqRng-30" value="" style="edgeStyle=orthogonalEdgeStyle;rounded=0;orthogonalLoop=1;jettySize=auto;html=1;" edge="1" parent="WIyWlLk6GJQsqaUBKTNV-1" source="QKXycGEVbPSbvXRqqRng-22" target="QKXycGEVbPSbvXRqqRng-29">
          <mxGeometry relative="1" as="geometry" />
        </mxCell>
        <mxCell id="QKXycGEVbPSbvXRqqRng-22" value="" style="rhombus;whiteSpace=wrap;html=1;" vertex="1" parent="WIyWlLk6GJQsqaUBKTNV-1">
          <mxGeometry x="94" y="1010" width="130" height="80" as="geometry" />
        </mxCell>
        <mxCell id="QKXycGEVbPSbvXRqqRng-23" value="8 &amp;lt; n &amp;lt; 9" style="text;html=1;align=center;verticalAlign=middle;whiteSpace=wrap;rounded=0;" vertex="1" parent="WIyWlLk6GJQsqaUBKTNV-1">
          <mxGeometry x="129" y="905" width="60" height="30" as="geometry" />
        </mxCell>
        <mxCell id="QKXycGEVbPSbvXRqqRng-24" value="9 &amp;lt; n &amp;lt; 10" style="text;html=1;align=center;verticalAlign=middle;whiteSpace=wrap;rounded=0;" vertex="1" parent="WIyWlLk6GJQsqaUBKTNV-1">
          <mxGeometry x="129" y="1035" width="60" height="30" as="geometry" />
        </mxCell>
        <mxCell id="QKXycGEVbPSbvXRqqRng-39" style="edgeStyle=orthogonalEdgeStyle;rounded=0;orthogonalLoop=1;jettySize=auto;html=1;exitX=1;exitY=0.5;exitDx=0;exitDy=0;entryX=0;entryY=0.5;entryDx=0;entryDy=0;" edge="1" parent="WIyWlLk6GJQsqaUBKTNV-1" source="QKXycGEVbPSbvXRqqRng-25" target="QKXycGEVbPSbvXRqqRng-35">
          <mxGeometry relative="1" as="geometry" />
        </mxCell>
        <mxCell id="QKXycGEVbPSbvXRqqRng-25" value="" style="rounded=1;whiteSpace=wrap;html=1;" vertex="1" parent="WIyWlLk6GJQsqaUBKTNV-1">
          <mxGeometry x="329" y="760" width="120" height="60" as="geometry" />
        </mxCell>
        <mxCell id="QKXycGEVbPSbvXRqqRng-40" style="edgeStyle=orthogonalEdgeStyle;rounded=0;orthogonalLoop=1;jettySize=auto;html=1;exitX=1;exitY=0.5;exitDx=0;exitDy=0;" edge="1" parent="WIyWlLk6GJQsqaUBKTNV-1" source="QKXycGEVbPSbvXRqqRng-27" target="QKXycGEVbPSbvXRqqRng-35">
          <mxGeometry relative="1" as="geometry">
            <mxPoint x="672" y="919.5454545454545" as="targetPoint" />
          </mxGeometry>
        </mxCell>
        <mxCell id="QKXycGEVbPSbvXRqqRng-27" value="" style="rounded=1;whiteSpace=wrap;html=1;" vertex="1" parent="WIyWlLk6GJQsqaUBKTNV-1">
          <mxGeometry x="329" y="890" width="120" height="60" as="geometry" />
        </mxCell>
        <mxCell id="QKXycGEVbPSbvXRqqRng-41" style="edgeStyle=orthogonalEdgeStyle;rounded=0;orthogonalLoop=1;jettySize=auto;html=1;exitX=1;exitY=0.5;exitDx=0;exitDy=0;" edge="1" parent="WIyWlLk6GJQsqaUBKTNV-1" source="QKXycGEVbPSbvXRqqRng-29">
          <mxGeometry relative="1" as="geometry">
            <mxPoint x="672" y="924" as="targetPoint" />
          </mxGeometry>
        </mxCell>
        <mxCell id="QKXycGEVbPSbvXRqqRng-29" value="" style="rounded=1;whiteSpace=wrap;html=1;" vertex="1" parent="WIyWlLk6GJQsqaUBKTNV-1">
          <mxGeometry x="329" y="1020" width="120" height="60" as="geometry" />
        </mxCell>
        <mxCell id="QKXycGEVbPSbvXRqqRng-31" value="trung bình" style="text;html=1;align=center;verticalAlign=middle;whiteSpace=wrap;rounded=0;" vertex="1" parent="WIyWlLk6GJQsqaUBKTNV-1">
          <mxGeometry x="348" y="615" width="60" height="30" as="geometry" />
        </mxCell>
        <mxCell id="QKXycGEVbPSbvXRqqRng-32" value="khá" style="text;html=1;align=center;verticalAlign=middle;whiteSpace=wrap;rounded=0;" vertex="1" parent="WIyWlLk6GJQsqaUBKTNV-1">
          <mxGeometry x="359" y="775" width="60" height="30" as="geometry" />
        </mxCell>
        <mxCell id="QKXycGEVbPSbvXRqqRng-33" value="giỏi" style="text;html=1;align=center;verticalAlign=middle;whiteSpace=wrap;rounded=0;" vertex="1" parent="WIyWlLk6GJQsqaUBKTNV-1">
          <mxGeometry x="359" y="905" width="60" height="30" as="geometry" />
        </mxCell>
        <mxCell id="QKXycGEVbPSbvXRqqRng-34" value="xuất sắc" style="text;html=1;align=center;verticalAlign=middle;whiteSpace=wrap;rounded=0;" vertex="1" parent="WIyWlLk6GJQsqaUBKTNV-1">
          <mxGeometry x="359" y="1035" width="60" height="30" as="geometry" />
        </mxCell>
        <mxCell id="QKXycGEVbPSbvXRqqRng-35" value="" style="ellipse;whiteSpace=wrap;html=1;" vertex="1" parent="WIyWlLk6GJQsqaUBKTNV-1">
          <mxGeometry x="612" y="750" width="120" height="80" as="geometry" />
        </mxCell>
        <mxCell id="QKXycGEVbPSbvXRqqRng-42" value="end" style="text;html=1;align=center;verticalAlign=middle;whiteSpace=wrap;rounded=0;" vertex="1" parent="WIyWlLk6GJQsqaUBKTNV-1">
          <mxGeometry x="642" y="775" width="60" height="30" as="geometry" />
        </mxCell>
      </root>
    </mxGraphModel>
  </diagram>
</mxfile>
